<svg id="Layer_1" enable-background="new 0 0 512.011 512.011" height="512" viewBox="0 0 512.011 512.011" width="512" xmlns="http://www.w3.org/2000/svg" xmlns:xlink="http://www.w3.org/1999/xlink"><linearGradient id="SVGID_1_" gradientUnits="userSpaceOnUse" x1="0" x2="512.011" y1="256.005" y2="256.005"><stop offset="0" stop-color="#9dd6fc"/><stop offset="1" stop-color="#d17ff7"/></linearGradient><path d="m443.005 140.059c-1.054 26.528-38.949 26.524-40 0 0-36.964-20.46-70.816-53.396-88.345-9.751-5.19-13.448-17.301-8.259-27.052 5.191-9.75 17.302-13.447 27.052-8.259 46.017 24.492 74.603 71.874 74.603 123.656zm0 157v37c0 77.196-62.804 140-140 140h-27v18c-1.056 26.536-38.953 26.516-40 0v-18h-27c-77.196 0-140-62.804-140-140v-37c0-11.046 8.954-20 20-20h60v-137c0-33.084 26.916-60 60-60h94c33.084 0 60 26.916 60 60v137h60c11.046 0 20 8.954 20 20zm-254-20h134v-137c0-11.028-8.972-20-20-20h-94c-11.028 0-20 8.972-20 20zm0 57c0 11.028 8.972 20 20 20h94c11.028 0 20-8.972 20-20v-17h-134zm214-17h-40v17c0 33.084-26.916 60-60 60h-94c-33.084 0-60-26.916-60-60v-17h-40v17c0 55.14 44.86 100 100 100h94c55.14 0 100-44.86 100-100zm107.896-249.553c-7.267-20.952-17.998-40.957-31.896-59.458-6.635-8.833-19.172-10.612-28.003-3.979-8.832 6.634-10.613 19.171-3.979 28.003 11.404 15.182 20.181 31.514 26.086 48.542 3.601 10.537 15.292 15.948 25.449 12.343 10.437-3.622 15.963-15.016 12.343-25.451zm-421.895 92.553c11.046 0 20-8.954 20-20 0-37.292 20.077-71.144 52.396-88.345 9.751-5.19 13.448-17.301 8.259-27.052-5.19-9.751-17.303-13.448-27.052-8.259-45.4 24.164-73.604 71.545-73.604 123.656.001 11.046 8.955 20 20.001 20zm-27.998-155.991c-8.832-6.634-21.369-4.853-28.003 3.979-13.898 18.503-24.629 38.508-31.895 59.459-3.619 10.436 1.907 21.83 12.343 25.449 10.156 3.605 21.847-1.806 25.448-12.343 5.988-17.267 14.522-33.145 26.086-48.541 6.635-8.832 4.853-21.37-3.979-28.003z" fill="url(#SVGID_1_)"/></svg>